<svg version="1.1" id="Layer_1" xmlns="http://www.w3.org/2000/svg" xmlns:xlink="http://www.w3.org/1999/xlink" x="0px" y="0px"
	 width="100%" viewBox="0 0 500 500" enable-background="new 0 0 500 500" xml:space="preserve">
<path fill="#010000" opacity="1.000000" stroke="none" 
	d="
M331.000000,501.000000 
	C220.666687,501.000000 110.833389,501.000000 1.000059,501.000000 
	C1.000039,334.333405 1.000039,167.666794 1.000020,1.000148 
	C167.666565,1.000099 334.333130,1.000099 500.999756,1.000049 
	C500.999847,167.666519 500.999847,334.333038 500.999939,500.999786 
	C444.500000,501.000000 388.000000,501.000000 331.000000,501.000000 
M337.622314,167.170227 
	C338.038116,167.489212 338.453918,167.808197 339.418549,168.788467 
	C343.566223,168.820251 347.713898,168.852036 352.429413,168.568878 
	C352.330780,167.380768 352.232117,166.192673 352.005493,164.331680 
	C351.915649,163.224594 351.825836,162.117508 351.737274,161.026276 
	C350.285736,160.884567 349.132111,160.771942 347.513885,160.247498 
	C346.349609,160.381592 345.185364,160.515701 343.111359,160.794724 
	C339.708649,160.794724 336.305939,160.794724 331.870361,160.794724 
	C333.352448,162.487488 333.875763,163.085175 334.732605,164.191101 
	C335.615021,165.024139 336.497406,165.857193 337.622314,167.170227 
M150.984894,169.004318 
	C154.872284,169.004318 158.759674,169.004318 162.996536,169.004318 
	C162.123901,165.900696 161.426956,163.421890 160.748734,161.009750 
	C158.895447,160.866852 157.427170,160.753647 155.651581,160.291855 
	C155.114548,160.408051 154.577499,160.524246 153.213165,160.797821 
	C150.797958,160.478714 149.494904,161.392822 149.082153,163.981400 
	C148.470139,163.979126 147.858124,163.976852 147.112045,163.049362 
	C147.038498,151.699814 146.964966,140.350281 147.078949,128.494354 
	C147.140152,128.325104 147.201340,128.155853 147.534286,127.735954 
	C147.343292,127.496887 147.152298,127.257820 146.072235,126.966713 
	C143.399109,126.997047 140.725983,127.027374 137.266708,126.995010 
	C136.478378,127.014999 135.690048,127.034981 134.265472,126.983681 
	C133.844513,126.925850 133.423538,126.868027 133.016403,126.082077 
	C133.647766,124.333488 134.279114,122.584892 135.233704,119.941101 
	C131.817139,121.176651 129.301147,122.828171 126.792068,122.817711 
	C123.151947,122.802528 121.300201,124.876366 120.561279,127.461967 
	C119.636208,130.698990 118.418716,132.400024 114.856659,132.195297 
	C114.296577,132.163086 113.627182,134.032806 112.982933,135.956299 
	C112.979424,153.908447 112.952194,171.860657 113.010307,189.812607 
	C113.015915,191.545700 113.550880,193.277069 114.288048,195.697327 
	C117.124481,195.443344 119.960915,195.189377 122.941406,194.922501 
	C122.941406,174.648895 122.941406,154.891251 123.215805,134.487335 
	C123.761436,132.659302 124.307076,130.831253 124.958374,129.935410 
	C124.965622,152.581558 124.948021,175.227814 125.031311,197.873688 
	C125.037422,199.532867 125.773048,201.189362 126.653908,202.885941 
	C126.653908,202.885941 127.102959,202.700165 127.730873,202.876999 
	C128.158524,202.823029 128.586166,202.769043 129.827606,202.900574 
	C131.489319,202.897263 133.151047,202.893951 135.638260,202.976837 
	C136.466644,202.955872 137.295029,202.934906 138.999649,202.905609 
	C141.625198,202.916214 144.250732,202.926804 147.467773,202.926025 
	C147.829956,202.653824 148.192154,202.381607 148.554337,202.109406 
	C148.118591,201.731659 147.682846,201.353897 147.111069,200.182938 
	C147.159439,199.114075 147.207809,198.045212 147.685593,196.517197 
	C147.540451,195.352097 147.395309,194.187012 147.108963,192.091629 
	C147.154739,183.069580 147.200516,174.047516 147.858200,165.013779 
	C148.469955,165.018692 149.081711,165.023605 149.841461,165.769196 
	C149.795547,166.519775 149.749634,167.270370 149.448898,168.283630 
	C149.655167,168.505875 149.861420,168.728104 150.984894,169.004318 
M359.591461,126.420708 
	C358.727173,126.563095 357.862915,126.705475 356.117645,126.988686 
	C355.684967,128.575302 354.885162,130.159561 354.875000,131.748871 
	C354.737915,153.174591 354.710785,174.600998 354.225616,196.582672 
	C354.384186,198.382034 354.542755,200.181396 355.244690,202.641998 
	C357.822296,202.663605 360.399933,202.685211 363.394501,202.889740 
	C363.394501,202.889740 363.849030,202.902481 364.680298,202.960022 
	C365.511963,202.937622 366.343628,202.915207 368.042114,202.922760 
	C370.647308,202.917755 373.252472,202.912750 376.513977,202.516266 
	C377.360229,199.982452 378.206482,197.448639 379.697571,195.002365 
	C380.127625,195.049973 380.557648,195.097580 381.115601,195.753693 
	C385.845856,197.151703 386.261536,197.109161 387.461151,195.000809 
	C387.461151,195.000809 387.900574,194.828323 388.573975,194.390182 
	C388.476685,190.241959 388.379395,186.093719 388.207397,181.167831 
	C388.230072,180.127045 388.252747,179.086243 388.752899,177.367874 
	C388.832153,172.595963 389.040100,167.821838 388.958954,163.052658 
	C388.850555,156.680603 388.517792,150.312347 388.202728,143.314362 
	C388.226746,142.893829 388.250732,142.473282 388.729919,141.447922 
	C388.451324,139.356308 388.172729,137.264694 387.123932,135.051147 
	C386.086945,134.990479 385.049988,134.929810 383.910431,134.312271 
	C383.594543,134.017319 383.278656,133.722382 382.962799,133.427444 
	C382.636261,133.902924 382.309723,134.378418 381.274872,134.980347 
	C380.556641,135.020401 379.838409,135.060455 378.451172,134.947235 
	C377.737091,133.640396 377.023041,132.333557 376.165619,130.272842 
	C376.211060,129.509720 376.256470,128.746613 376.573090,127.720909 
	C376.352112,127.511070 376.131165,127.301231 375.264191,127.035583 
	C373.509918,126.974052 371.755646,126.912514 369.812073,126.564583 
	C369.542755,126.658028 369.273468,126.751465 368.380646,126.967216 
	C367.958740,127.004768 367.536865,127.042320 366.319214,127.021919 
	C365.520966,127.030235 364.722748,127.038544 363.138092,126.988075 
	C362.090393,126.940071 361.042694,126.892067 359.591461,126.420708 
M321.185303,160.987259 
	C320.780945,161.377441 320.376587,161.767624 319.230194,162.055099 
	C316.711334,162.805984 314.192474,163.556854 310.822876,164.561325 
	C313.273865,161.974426 314.922607,160.234283 316.893005,158.061050 
	C316.505707,157.678131 316.118378,157.295197 315.074127,156.783493 
	C314.426910,156.927551 313.779694,157.071594 312.580963,157.132111 
	C312.066925,156.759201 311.552887,156.386307 311.675354,155.770142 
	C316.393005,152.228012 317.922516,147.544937 317.094238,141.766922 
	C316.410309,136.995743 315.901337,132.170670 315.762115,127.356522 
	C315.506622,118.522987 310.135132,113.124901 303.585876,108.505775 
	C295.203705,102.593925 286.383362,104.189293 278.030121,108.165573 
	C270.325684,111.833008 267.774475,119.075371 267.546295,127.203156 
	C267.437469,131.079742 267.527588,134.961929 267.527588,140.370789 
	C263.000000,137.522064 258.836304,135.498627 255.423950,132.592865 
	C251.781433,129.491119 248.910675,125.497177 245.594009,121.995972 
	C235.923615,111.787445 222.824112,113.890823 216.762344,126.641602 
	C215.500046,129.296829 214.576050,132.112869 213.534531,134.757370 
	C206.623566,133.008041 200.006577,132.222137 195.151108,138.602448 
	C189.154785,146.481827 194.788528,152.420944 199.762085,159.222885 
	C193.676743,158.523605 190.921768,154.984848 188.280853,151.230087 
	C187.481201,150.093109 186.067551,148.026566 185.653717,148.191284 
	C181.728195,149.753662 177.519348,151.148163 174.268051,153.704926 
	C171.124741,156.176804 170.943283,160.588959 173.233109,163.745865 
	C175.990265,167.547058 179.283722,171.362534 183.194214,173.821167 
	C188.015839,176.852646 190.894669,180.231262 192.330002,185.916489 
	C195.786240,199.606339 200.089890,213.112335 208.219971,224.916061 
	C215.705338,235.783798 232.372650,236.229080 241.589874,226.034134 
	C241.589874,226.034134 242.024185,225.990356 242.707169,226.244415 
	C251.110611,231.394150 259.066010,228.083878 266.780365,224.589890 
	C270.068878,223.100464 272.609100,220.256699 273.091248,215.783295 
	C270.665741,216.974533 268.919830,217.832016 266.096436,219.218689 
	C267.888367,216.012482 268.949463,214.113937 270.407074,211.505966 
	C268.387573,212.385132 267.338898,212.841675 265.836609,212.846207 
	C265.681732,212.699341 265.526825,212.552490 265.782990,211.849075 
	C272.265350,202.342834 271.321747,191.641296 270.844604,180.979462 
	C270.612061,175.782654 268.417389,172.253983 263.942810,169.343262 
	C259.244446,166.286957 255.163651,162.246475 250.983337,158.448578 
	C249.613586,157.204147 248.776932,155.372971 247.623428,153.704422 
	C257.034760,149.826660 270.717743,157.584167 271.955231,167.056381 
	C272.795135,173.485107 272.993866,180.012085 274.093933,186.389084 
	C275.861877,196.637451 278.138000,206.798126 280.151520,217.652390 
	C280.094147,218.085190 280.036804,218.517975 279.259949,218.985443 
	C270.597992,223.495636 267.363647,228.994019 267.875244,238.566208 
	C268.099884,239.214157 268.324493,239.862091 268.549133,240.510025 
	C268.782532,240.197556 269.015930,239.885086 269.867432,239.246841 
	C270.396698,238.868286 270.925964,238.489731 271.970154,237.742905 
	C271.516724,239.632202 271.061371,240.953278 270.900421,242.309311 
	C270.437408,246.210464 272.313721,248.591888 276.167358,248.439148 
	C279.941284,248.289581 283.750397,247.595825 287.408051,246.627274 
	C288.934204,246.223129 291.290802,244.352951 291.178741,243.393707 
	C290.988953,241.769592 289.447296,239.731232 287.920929,238.956238 
	C284.865784,237.405045 281.436890,236.589996 278.185669,235.479019 
	C290.894257,232.149872 303.347015,231.779236 314.986023,239.188644 
	C317.899445,241.043320 320.529144,243.385498 323.551025,245.019577 
	C330.890533,248.988403 336.206207,246.830750 338.144226,238.725174 
	C340.415619,229.225220 342.046936,219.572205 344.303558,209.557281 
	C344.413025,209.035431 344.522461,208.513565 344.938202,207.247330 
	C345.957001,203.407623 346.834167,199.523361 348.024658,195.737656 
	C350.342041,188.368805 348.459259,181.906799 343.669647,176.289810 
	C342.256134,174.632126 339.715942,173.935196 337.692047,172.797989 
	C336.465088,174.983353 334.591705,177.044128 334.141693,179.379211 
	C333.110657,184.728699 333.048767,190.260773 332.095764,195.630386 
	C330.420593,205.068924 328.372925,214.441376 326.162201,224.408630 
	C326.187225,225.274155 326.212219,226.139664 326.012451,227.659836 
	C325.953613,228.522247 325.894806,229.384674 325.795532,230.840424 
	C324.702728,229.315445 324.040588,228.391449 323.203491,226.909058 
	C322.152161,225.480331 321.100830,224.051590 320.049500,222.622849 
	C319.734894,222.800980 319.420319,222.979111 319.105713,223.157242 
	C319.105713,224.453613 319.105713,225.749969 318.524475,227.113312 
	C318.288635,226.596954 318.052826,226.080597 317.777252,224.826218 
	C317.298035,223.907257 316.818848,222.988312 315.855255,221.140381 
	C315.401062,223.017548 315.175049,223.951584 314.312531,224.814804 
	C314.127167,224.211624 313.941833,223.608444 313.822357,222.453461 
	C313.538361,222.144211 313.254333,221.834976 312.970337,221.525726 
	C312.771210,222.020325 312.572083,222.514923 312.105133,223.651566 
	C311.715271,224.693817 311.325439,225.736069 310.533630,227.852905 
	C310.111053,225.803467 309.938721,224.967560 309.860870,223.517914 
	C309.616272,222.767258 309.371643,222.016602 309.127045,221.265930 
	C308.886566,221.300766 308.646057,221.335602 308.405548,221.370438 
	C308.290497,222.247971 308.175446,223.125504 307.688446,224.580505 
	C307.478180,225.448898 307.267914,226.317276 306.341858,227.576752 
	C306.115662,227.425903 305.889465,227.275070 305.845337,226.348907 
	C305.291077,223.734619 304.736816,221.120331 304.468781,219.855942 
	C307.053253,217.116470 309.141541,214.902939 311.196106,212.573166 
	C311.196106,212.573166 311.417908,212.656219 312.197937,212.514069 
	C314.680420,202.968445 317.162903,193.422821 320.436310,183.887543 
	C326.317230,182.260910 326.906036,176.964828 326.821198,172.575470 
	C326.644714,163.444397 325.324524,154.335403 324.474365,145.217346 
	C323.687286,145.201584 322.900177,145.185806 322.113068,145.170044 
	C321.873535,147.494476 321.474365,149.816208 321.434845,152.144058 
	C321.385468,155.051727 321.632141,157.964417 321.185303,160.987259 
M102.842659,187.136337 
	C104.537941,187.170486 106.233223,187.204636 108.383392,187.635788 
	C109.181534,187.367584 109.979668,187.099380 110.927872,185.926239 
	C110.880936,171.671432 110.834000,157.416641 110.570488,142.503021 
	C109.012070,142.539871 107.453659,142.576721 105.077438,142.658829 
	C103.877388,143.080322 102.677338,143.501816 101.076912,144.644409 
	C101.204414,150.131317 101.331917,155.618225 101.523094,161.800995 
	C101.505547,162.498886 101.488007,163.196777 101.092537,164.462769 
	C101.217148,166.010498 101.341759,167.558243 101.523972,169.863586 
	C101.501144,170.875641 101.478310,171.887711 101.073410,173.630005 
	C101.385750,178.076889 101.698090,182.523758 102.842659,187.136337 
M392.890015,142.297501 
	C392.561157,142.415283 392.232300,142.533066 391.229645,143.243851 
	C391.229645,158.110062 391.229645,172.976273 391.229645,188.597137 
	C394.551910,187.936203 397.222290,187.404953 400.636475,186.483063 
	C400.737946,172.547577 400.849884,158.612122 400.901886,144.676437 
	C400.903931,144.130966 400.332886,143.583359 399.200256,142.758301 
	C397.172791,142.717026 395.145325,142.675751 392.890015,142.297501 
M282.609375,305.878448 
	C288.358856,305.878448 294.108337,305.878448 300.230225,305.878448 
	C295.633667,325.861237 291.181763,345.215149 286.703857,364.682037 
	C295.506195,364.682037 303.896698,364.682037 312.409302,364.682037 
	C318.484009,338.177246 324.493408,311.957489 330.584015,285.383423 
	C312.787750,285.383423 296.015320,285.383423 278.765259,285.383423 
	C277.248260,292.072723 275.732056,298.758606 274.117340,305.878906 
	C277.034790,305.878906 279.344238,305.878906 282.609375,305.878448 
M240.578949,314.154999 
	C242.713623,304.664246 244.848312,295.173462 247.018677,285.524048 
	C229.478653,285.524048 212.419907,285.524048 195.201645,285.524048 
	C193.684860,292.351196 192.228958,298.904388 190.673737,305.904602 
	C199.630432,305.904602 207.913849,305.904602 216.690231,305.904602 
	C212.141632,325.765778 207.687820,345.213104 203.185364,364.872803 
	C211.981491,364.872803 220.275131,364.872803 228.843002,364.872803 
	C232.670898,348.184479 236.483490,331.562897 240.578949,314.154999 
M369.782349,307.791779 
	C372.901489,315.299072 376.205780,322.737640 379.032928,330.353333 
	C379.944061,332.807678 380.218903,335.849792 379.716339,338.413544 
	C377.997498,347.181793 375.803680,355.856934 373.751556,364.738495 
	C382.544922,364.738495 390.960388,364.738495 399.418396,364.738495 
	C401.600525,355.291046 403.771851,346.102570 405.804871,336.883575 
	C406.151001,335.314056 406.355316,333.461823 405.861877,331.997345 
	C400.622375,316.447693 395.228516,300.950043 389.925293,285.577637 
	C380.096008,285.577637 370.584778,285.577637 360.516663,285.577637 
	C363.621948,293.080078 366.525604,300.095367 369.782349,307.791779 
M67.647522,365.006104 
	C73.958984,365.006104 80.270447,365.006104 86.660873,365.006104 
	C92.784637,338.338806 98.831535,312.006256 104.933029,285.435913 
	C96.203766,285.435913 87.910301,285.435913 79.259491,285.435913 
	C73.174309,311.903290 67.117462,338.247467 60.965305,365.006165 
	C63.073692,365.006165 64.885406,365.006165 67.647522,365.006104 
M165.129410,362.882812 
	C171.067276,337.147858 177.005142,311.412903 182.992355,285.464050 
	C173.962311,285.464050 165.697800,285.464050 157.296417,285.464050 
	C151.200241,311.984283 145.153030,338.291504 139.015488,364.991669 
	C147.292068,364.991669 155.257050,365.018127 163.220993,364.937897 
	C163.814102,364.931915 164.399490,364.160919 165.129410,362.882812 
M178.688904,223.792725 
	C184.570435,233.637711 194.418701,236.411545 204.726456,230.049881 
	C200.343445,229.558655 195.960434,229.067444 191.577408,228.576218 
	C191.513916,228.356567 191.450424,228.136932 191.386917,227.917282 
	C195.199753,226.941620 199.012573,225.965958 203.521835,224.812088 
	C197.101593,222.287659 191.908722,224.333618 186.138382,227.048798 
	C194.255722,216.599503 186.815659,207.756927 183.808701,197.756561 
	C184.837738,197.138107 186.108658,196.374298 187.903732,195.295456 
	C185.837967,194.594696 184.709381,194.211853 183.485764,193.796783 
	C184.172913,192.803589 184.672180,192.081955 185.272934,191.213623 
	C183.912842,190.897537 182.904877,190.663284 181.571594,190.353439 
	C182.504715,189.083679 183.168961,188.179794 183.978775,187.077835 
	C182.272995,186.857178 181.080475,186.702927 179.571548,186.507736 
	C180.483887,185.226471 181.142700,184.301254 181.972595,183.135773 
	C180.136261,183.012405 178.832581,182.924820 177.431595,182.830704 
	C178.222473,181.595688 178.927292,180.495026 180.340652,178.287949 
	C172.956406,181.793625 172.829422,174.272430 169.238220,172.516251 
	C164.648132,178.468140 169.550949,204.938034 178.688904,223.792725 
M425.620544,312.138733 
	C433.157898,303.437378 440.695251,294.735992 448.936920,285.221558 
	C446.522003,285.221558 445.407440,285.221741 444.292877,285.221527 
	C437.301392,285.220154 430.309265,285.164154 423.318695,285.243164 
	C420.380524,285.276337 408.721069,298.812927 408.938019,301.755920 
	C408.950073,301.919922 408.996307,302.085297 409.050568,302.241760 
	C411.375763,308.942261 413.703644,315.641815 416.220093,322.885101 
	C419.482361,319.157867 422.319702,315.916168 425.620544,312.138733 
M115.138885,298.541870 
	C114.795509,300.443939 114.452126,302.345978 114.039703,304.630463 
	C121.920135,304.630463 129.397903,304.703888 136.870621,304.542664 
	C137.865768,304.521210 139.487350,303.479401 139.710785,302.621552 
	C141.162781,297.046661 142.308273,291.391968 143.625488,285.440918 
	C134.876678,285.440918 126.630676,285.440918 118.294937,285.440918 
	C117.279701,289.667328 116.311150,293.699432 115.138885,298.541870 
M127.128273,333.699707 
	C128.301086,328.607697 129.473907,323.515717 130.733963,318.044922 
	C124.597214,318.044922 118.966400,317.956329 113.343285,318.124756 
	C112.303291,318.155914 110.592155,319.042999 110.384590,319.844238 
	C108.992653,325.217773 107.923599,330.674957 106.665657,336.494476 
	C112.949913,336.494476 118.578140,336.585999 124.197647,336.405823 
	C125.151527,336.375214 126.067986,335.177704 127.128273,333.699707 
M353.093109,300.770142 
	C354.223846,295.702332 355.354614,290.634521 356.529114,285.370605 
	C351.898956,285.370605 348.106995,285.370605 343.885101,285.370605 
	C342.380035,292.113220 340.888336,298.795837 339.331665,305.769653 
	C343.864838,305.769653 347.661163,305.769653 351.730377,305.769653 
	C352.142792,304.388306 352.559235,302.993500 353.093109,300.770142 
M268.320984,285.219696 
	C265.695435,285.219696 263.069916,285.219696 260.401428,285.219696 
	C258.815216,292.276306 257.337250,298.851318 255.817307,305.613098 
	C260.321259,305.613098 264.397156,305.613098 268.572479,305.613098 
	C270.096375,298.795929 271.563873,292.230957 273.083435,285.433075 
	C271.503479,285.345490 270.360931,285.282196 268.320984,285.219696 
M257.023071,113.114693 
	C259.256531,113.114693 261.490021,113.114693 263.723480,113.114693 
	C257.832977,105.317398 249.845306,105.905380 242.055420,105.600792 
	C245.481491,110.635452 250.666656,112.180748 257.023071,113.114693 
M412.298462,169.036789 
	C417.855774,167.791046 413.646820,163.855789 415.005707,161.182068 
	C410.702545,161.182068 406.980347,161.182068 403.192383,161.182068 
	C403.192383,163.884399 403.192383,166.276810 403.192383,169.037262 
	C406.091583,169.037262 408.719391,169.037262 412.298462,169.036789 
M91.564850,160.886108 
	C90.126770,160.976593 88.688690,161.067078 87.274277,161.156067 
	C87.274277,163.920685 87.274277,166.321594 87.274277,168.730057 
	C91.300125,168.730057 95.029778,168.730057 98.729202,168.730057 
	C98.729202,166.012543 98.729202,163.609024 98.729202,160.886230 
	C96.463852,160.886230 94.495148,160.886230 91.564850,160.886108 
M124.378082,116.963379 
	C123.205826,117.838211 122.033562,118.713043 120.861298,119.587868 
	C121.262062,120.111015 121.662819,120.634155 122.063576,121.157295 
	C124.330956,119.970535 126.598335,118.783775 128.865723,117.597015 
	C128.721588,117.152832 128.577469,116.708649 128.433350,116.264465 
	C127.330688,116.452675 126.228035,116.640884 124.378082,116.963379 
M152.589142,127.805450 
	C152.207336,127.801048 151.825546,127.796638 151.443741,127.792229 
	C151.442108,127.950684 151.429718,128.246826 151.440414,128.247665 
	C151.820297,128.277359 152.202347,128.279373 152.589142,127.805450 
M141.776825,122.467606 
	C142.157364,122.592430 142.533325,122.737823 142.922348,122.824669 
	C142.999878,122.841988 143.127365,122.635414 143.231827,122.532074 
	C142.851196,122.407295 142.470551,122.282516 141.776825,122.467606 
M114.483398,129.583496 
	C114.483398,129.583496 114.421616,129.477951 114.483398,129.583496 
M373.576599,124.516869 
	C373.576599,124.516869 373.478210,124.573502 373.576599,124.516869 
z"/>
<path fill="#FBFBFB" opacity="1.000000" stroke="none" 
	d="
M319.645386,183.877197 
	C317.162903,193.422821 314.680420,202.968445 311.522858,212.199158 
	C310.187927,210.881149 309.528107,209.878052 308.972473,208.639313 
	C309.717102,207.305573 310.357574,206.207458 311.019104,204.792664 
	C310.734314,203.630844 310.547729,202.160385 310.097107,202.074432 
	C309.234253,201.909866 308.221283,202.532288 307.270599,202.828156 
	C307.845825,203.835327 308.421051,204.842499 308.640717,206.039490 
	C301.411835,207.451080 294.538483,208.672867 287.122162,209.991165 
	C288.384735,210.896729 289.473206,211.677399 290.303223,212.860550 
	C289.923981,213.558136 289.803192,213.853226 289.400452,214.262787 
	C287.550385,214.634964 285.982178,214.892654 283.984070,215.220978 
	C292.643433,218.066208 298.490723,217.634949 305.653137,213.797089 
	C303.207611,210.558044 306.583405,210.476364 308.056702,209.828186 
	C309.108246,211.096741 310.169037,211.893082 311.229858,212.689423 
	C309.141541,214.902939 307.053253,217.116470 304.468781,219.855942 
	C304.736816,221.120331 305.291077,223.734619 305.557434,226.963959 
	C305.490356,228.254303 305.711151,228.929581 305.931946,229.604858 
	C306.307159,228.798462 306.682404,227.992050 307.057617,227.185654 
	C307.267914,226.317276 307.478180,225.448898 308.300903,224.324112 
	C309.197662,224.089035 309.482025,224.110336 309.766357,224.131653 
	C309.938721,224.967560 310.111053,225.803467 310.533630,227.852905 
	C311.325439,225.736069 311.715271,224.693817 312.469604,223.336334 
	C313.141663,223.020584 313.449127,223.015305 313.756500,223.005264 
	C313.941833,223.608444 314.127167,224.211624 314.904358,225.141846 
	C316.269806,225.500671 317.043396,225.532455 317.817017,225.564240 
	C318.052826,226.080597 318.288635,226.596954 319.034424,227.294434 
	C319.205444,228.842880 318.866516,230.210190 318.527618,231.577499 
	C318.773773,231.710037 319.019928,231.842575 319.266083,231.975098 
	C320.636871,230.472565 322.007660,228.970016 323.378448,227.467468 
	C324.040588,228.391449 324.702728,229.315445 325.795532,230.840424 
	C325.894806,229.384674 325.953613,228.522247 326.438477,227.328049 
	C329.494873,225.609650 328.004883,224.723526 326.481293,223.841492 
	C328.372925,214.441376 330.420593,205.068924 332.095764,195.630386 
	C333.048767,190.260773 333.110657,184.728699 334.141693,179.379211 
	C334.591705,177.044128 336.465088,174.983353 337.692047,172.797989 
	C339.715942,173.935196 342.256134,174.632126 343.669647,176.289810 
	C348.459259,181.906799 350.342041,188.368805 348.024658,195.737656 
	C346.834167,199.523361 345.957001,203.407623 344.522583,207.666534 
	C344.056610,208.719025 344.006256,209.352295 343.955933,209.985580 
	C342.046936,219.572205 340.415619,229.225220 338.144226,238.725174 
	C336.206207,246.830750 330.890533,248.988403 323.551025,245.019577 
	C320.529144,243.385498 317.899445,241.043320 314.986023,239.188644 
	C303.347015,231.779236 290.894257,232.149872 278.185669,235.479019 
	C281.436890,236.589996 284.865784,237.405045 287.920929,238.956238 
	C289.447296,239.731232 290.988953,241.769592 291.178741,243.393707 
	C291.290802,244.352951 288.934204,246.223129 287.408051,246.627274 
	C283.750397,247.595825 279.941284,248.289581 276.167358,248.439148 
	C272.313721,248.591888 270.437408,246.210464 270.900421,242.309311 
	C271.061371,240.953278 271.516724,239.632202 271.970154,237.742905 
	C270.925964,238.489731 270.396698,238.868286 269.431580,239.099976 
	C268.687836,238.637070 268.379913,238.321014 268.071991,238.004944 
	C267.363647,228.994019 270.597992,223.495636 279.789825,219.223785 
	C281.112396,219.754654 281.905121,220.047180 282.697815,220.339691 
	C282.903381,219.980469 283.108948,219.621246 283.314514,219.262009 
	C282.276154,218.506622 281.237762,217.751251 280.199402,216.995865 
	C278.138000,206.798126 275.861877,196.637451 274.093933,186.389084 
	C272.993866,180.012085 272.795135,173.485107 271.955231,167.056381 
	C270.717743,157.584167 257.034760,149.826660 247.623428,153.704422 
	C248.776932,155.372971 249.613586,157.204147 250.983337,158.448578 
	C255.163651,162.246475 259.244446,166.286957 263.942810,169.343262 
	C268.417389,172.253983 270.612061,175.782654 270.844604,180.979462 
	C271.321747,191.641296 272.265350,202.342834 265.334229,212.310684 
	C264.712067,213.110748 264.538666,213.449203 264.365234,213.787674 
	C265.006897,213.624527 265.648529,213.461380 266.290192,213.298218 
	C267.338898,212.841675 268.387573,212.385132 270.407074,211.505966 
	C268.949463,214.113937 267.888367,216.012482 266.096436,219.218689 
	C268.919830,217.832016 270.665741,216.974533 273.091248,215.783295 
	C272.609100,220.256699 270.068878,223.100464 266.780365,224.589890 
	C259.066010,228.083878 251.110611,231.394150 242.292236,225.803909 
	C241.636200,225.579330 241.395096,225.795242 241.153992,226.011154 
	C232.372650,236.229080 215.705338,235.783798 208.219971,224.916061 
	C200.089890,213.112335 195.786240,199.606339 192.330002,185.916489 
	C190.894669,180.231262 188.015839,176.852646 183.194214,173.821167 
	C179.283722,171.362534 175.990265,167.547058 173.233109,163.745865 
	C170.943283,160.588959 171.124741,156.176804 174.268051,153.704926 
	C177.519348,151.148163 181.728195,149.753662 185.653717,148.191284 
	C186.067551,148.026566 187.481201,150.093109 188.280853,151.230087 
	C190.921768,154.984848 193.676743,158.523605 199.762085,159.222885 
	C194.788528,152.420944 189.154785,146.481827 195.151108,138.602448 
	C200.006577,132.222137 206.623566,133.008041 213.534531,134.757370 
	C214.576050,132.112869 215.500046,129.296829 216.762344,126.641602 
	C222.824112,113.890823 235.923615,111.787445 245.594009,121.995972 
	C248.910675,125.497177 251.781433,129.491119 255.423950,132.592865 
	C258.836304,135.498627 263.000000,137.522064 267.527588,140.370789 
	C267.527588,134.961929 267.437469,131.079742 267.546295,127.203156 
	C267.774475,119.075371 270.325684,111.833008 278.030121,108.165573 
	C286.383362,104.189293 295.203705,102.593925 303.585876,108.505775 
	C310.135132,113.124901 315.506622,118.522987 315.762115,127.356522 
	C315.901337,132.170670 316.410309,136.995743 317.094238,141.766922 
	C317.922516,147.544937 316.393005,152.228012 311.022675,155.932709 
	C309.743011,156.822586 309.115997,157.549911 308.489014,158.277222 
	C308.773193,158.661423 309.057373,159.045609 309.341583,159.429810 
	C310.605194,158.691742 311.868835,157.953690 313.132477,157.215637 
	C313.779694,157.071594 314.426910,156.927551 315.572266,157.264801 
	C316.237366,157.995468 316.404358,158.244797 316.571320,158.494141 
	C314.922607,160.234283 313.273865,161.974426 310.822876,164.561325 
	C314.192474,163.556854 316.711334,162.805984 319.578613,162.563690 
	C319.964752,168.681290 320.002533,174.290283 319.922974,180.194702 
	C319.752228,181.619156 319.698792,182.748184 319.645386,183.877197 
M291.894043,204.728821 
	C291.810669,204.680435 291.727264,204.632034 291.643890,204.583649 
	C291.762177,204.722809 291.880493,204.861954 292.070496,205.570297 
	C292.378326,205.891556 292.686188,206.212814 292.994049,206.534073 
	C293.176453,206.321823 293.358826,206.109573 293.541199,205.897324 
	C293.027863,205.597809 292.514557,205.298294 291.894043,204.728821 
M221.493225,229.579468 
	C226.179260,228.304840 230.865280,227.030212 236.934387,225.379379 
	C230.175476,224.703522 224.824936,223.695023 220.590363,229.198120 
	C220.719223,229.349045 220.848083,229.499985 220.976944,229.650909 
	C220.940231,229.408707 220.903534,229.166519 221.493225,229.579468 
M238.810883,222.998581 
	C239.239456,223.182358 239.668030,223.366119 240.096603,223.549881 
	C239.786682,222.980774 239.476761,222.411682 239.117081,221.092087 
	C238.038589,218.143250 236.680984,215.263611 235.929657,212.233643 
	C232.574814,198.704132 229.406967,185.128372 226.143188,171.576157 
	C224.378082,164.246918 213.784561,158.776413 205.784653,162.107056 
	C209.678894,164.956924 212.851379,167.865768 216.534821,169.803146 
	C219.971344,171.610657 221.652512,174.229996 222.798721,177.630157 
	C226.483261,188.560181 227.310699,199.810043 225.823059,211.125488 
	C225.433884,214.085648 223.047256,216.918442 221.163055,219.507797 
	C219.368393,221.974075 217.031982,224.046143 214.933746,226.291519 
	C215.180176,226.624573 215.426590,226.957642 215.673004,227.290710 
	C222.574203,222.055176 229.470673,216.795700 238.810883,222.998581 
M267.963135,184.727982 
	C269.033447,175.621872 262.344391,172.463455 255.520615,168.433807 
	C257.629089,176.644287 259.558167,184.156174 261.597778,192.098450 
	C262.415161,190.749786 263.052124,189.698883 264.008270,188.121307 
	C264.544128,193.244034 265.009705,197.694992 265.475281,202.145966 
	C266.084595,202.130234 266.693878,202.114517 267.303162,202.098801 
	C267.541138,196.621429 267.779114,191.144043 267.963135,184.727982 
M291.720947,110.352486 
	C292.827820,109.911659 293.934723,109.470840 295.041595,109.030014 
	C281.052246,108.515106 271.721741,116.136177 272.400909,126.256248 
	C277.908661,122.643974 283.618042,118.899460 289.672913,114.928360 
	C287.333801,114.928360 285.392426,114.928360 281.943115,114.928360 
	C285.859253,113.116241 288.472565,111.906960 291.720947,110.352486 
M239.207977,125.510681 
	C240.396576,125.510681 241.585159,125.510681 243.007751,125.510681 
	C237.288940,116.431305 227.511093,117.252640 222.416580,126.848228 
	C223.438019,126.848228 224.447540,126.848228 225.650894,126.848228 
	C224.537521,128.976807 223.600845,130.767578 223.106598,131.712494 
	C228.040115,129.706924 233.201050,127.608894 239.207977,125.510681 
M179.331421,162.149612 
	C178.088013,161.361343 176.844589,160.573059 174.697403,159.211823 
	C177.533432,165.691086 180.689941,170.127869 185.194702,171.614594 
	C186.884125,169.884735 187.709152,169.039978 188.402817,168.329727 
	C185.613678,166.456329 182.752792,164.534744 179.331421,162.149612 
M275.561493,129.003479 
	C274.824432,129.897476 274.087341,130.791473 273.350281,131.685471 
	C273.695251,132.057678 274.040253,132.429886 274.385223,132.802094 
	C277.751984,130.307388 281.118744,127.812668 284.485535,125.317947 
	C284.092529,124.767395 283.699554,124.216835 283.306549,123.666283 
	C280.907318,125.293106 278.508057,126.919937 275.561493,129.003479 
M291.979889,221.983826 
	C292.215057,221.298828 292.450195,220.613846 292.685364,219.928848 
	C290.717529,219.928848 288.749695,219.928848 286.781860,219.928848 
	C286.763275,220.462997 286.744690,220.997162 286.726135,221.531311 
	C288.230530,221.690384 289.734955,221.849472 291.979889,221.983826 
M301.475311,203.839584 
	C302.342804,204.160690 303.210297,204.481796 304.077789,204.802902 
	C304.167267,204.226410 304.256714,203.649902 304.346191,203.073410 
	C303.332855,203.121918 302.319489,203.170425 301.475311,203.839584 
M299.206085,205.739136 
	C299.145691,205.087036 299.085266,204.434937 299.024841,203.782837 
	C298.658569,203.956772 297.959808,204.221161 297.978638,204.290314 
	C298.130463,204.848434 298.417328,205.369812 299.206085,205.739136 
M330.184692,242.079865 
	C330.443695,242.569626 330.702728,243.059387 330.961761,243.549133 
	C331.181641,243.371124 331.605377,243.055969 331.591461,243.035248 
	C331.276550,242.567169 330.913635,242.131348 330.184692,242.079865 
M300.513397,219.449173 
	C300.369049,220.005722 300.224701,220.562271 300.080353,221.118820 
	C300.340820,221.162735 300.601257,221.206650 300.861694,221.250565 
	C300.906342,220.607285 300.950989,219.964005 300.513397,219.449173 
M297.496063,221.532120 
	C297.706757,221.158173 298.006836,220.801666 298.084808,220.401840 
	C298.116669,220.238678 297.667145,219.981613 297.436646,219.767273 
	C297.356201,220.222275 297.275757,220.677277 297.496063,221.532120 
M317.516388,233.417053 
	C317.516388,233.417053 317.577667,233.522095 317.516388,233.417053 
M284.516571,221.399475 
	C284.516571,221.399475 284.594635,221.524323 284.516571,221.399475 
M281.483490,215.584030 
	C281.483490,215.584030 281.420776,215.477341 281.483490,215.584030 
z"/>
<path fill="#FAFAFA" opacity="1.000000" stroke="none" 
	d="
M282.131531,305.878662 
	C279.344238,305.878906 277.034790,305.878906 274.117340,305.878906 
	C275.732056,298.758606 277.248260,292.072723 278.765259,285.383423 
	C296.015320,285.383423 312.787750,285.383423 330.584015,285.383423 
	C324.493408,311.957489 318.484009,338.177246 312.409302,364.682037 
	C303.896698,364.682037 295.506195,364.682037 286.703857,364.682037 
	C291.181763,345.215149 295.633667,325.861237 300.230225,305.878448 
	C294.108337,305.878448 288.358856,305.878448 282.131531,305.878662 
z"/>
<path fill="#FAFAFA" opacity="1.000000" stroke="none" 
	d="
M240.437500,314.548157 
	C236.483490,331.562897 232.670898,348.184479 228.843002,364.872803 
	C220.275131,364.872803 211.981491,364.872803 203.185364,364.872803 
	C207.687820,345.213104 212.141632,325.765778 216.690231,305.904602 
	C207.913849,305.904602 199.630432,305.904602 190.673737,305.904602 
	C192.228958,298.904388 193.684860,292.351196 195.201645,285.524048 
	C212.419907,285.524048 229.478653,285.524048 247.018677,285.524048 
	C244.848312,295.173462 242.713623,304.664246 240.437500,314.548157 
z"/>
<path fill="#FBFBFB" opacity="1.000000" stroke="none" 
	d="
M369.605804,307.451233 
	C366.525604,300.095367 363.621948,293.080078 360.516663,285.577637 
	C370.584778,285.577637 380.096008,285.577637 389.925293,285.577637 
	C395.228516,300.950043 400.622375,316.447693 405.861877,331.997345 
	C406.355316,333.461823 406.151001,335.314056 405.804871,336.883575 
	C403.771851,346.102570 401.600525,355.291046 399.418396,364.738495 
	C390.960388,364.738495 382.544922,364.738495 373.751556,364.738495 
	C375.803680,355.856934 377.997498,347.181793 379.716339,338.413544 
	C380.218903,335.849792 379.944061,332.807678 379.032928,330.353333 
	C376.205780,322.737640 372.901489,315.299072 369.605804,307.451233 
z"/>
<path fill="#FBFBFB" opacity="1.000000" stroke="none" 
	d="
M67.172318,365.006134 
	C64.885406,365.006165 63.073692,365.006165 60.965305,365.006165 
	C67.117462,338.247467 73.174309,311.903290 79.259491,285.435913 
	C87.910301,285.435913 96.203766,285.435913 104.933029,285.435913 
	C98.831535,312.006256 92.784637,338.338806 86.660873,365.006104 
	C80.270447,365.006104 73.958984,365.006104 67.172318,365.006134 
z"/>
<path fill="#FBFBFB" opacity="1.000000" stroke="none" 
	d="
M165.058929,363.314148 
	C164.399490,364.160919 163.814102,364.931915 163.220993,364.937897 
	C155.257050,365.018127 147.292068,364.991669 139.015488,364.991669 
	C145.153030,338.291504 151.200241,311.984283 157.296417,285.464050 
	C165.697800,285.464050 173.962311,285.464050 182.992355,285.464050 
	C177.005142,311.412903 171.067276,337.147858 165.058929,363.314148 
z"/>
<path fill="#F6F6F6" opacity="1.000000" stroke="none" 
	d="
M178.479279,223.489990 
	C169.550949,204.938034 164.648132,178.468140 169.238220,172.516251 
	C172.829422,174.272430 172.956406,181.793625 180.340652,178.287949 
	C178.927292,180.495026 178.222473,181.595688 177.431595,182.830704 
	C178.832581,182.924820 180.136261,183.012405 181.972595,183.135773 
	C181.142700,184.301254 180.483887,185.226471 179.571548,186.507736 
	C181.080475,186.702927 182.272995,186.857178 183.978775,187.077835 
	C183.168961,188.179794 182.504715,189.083679 181.571594,190.353439 
	C182.904877,190.663284 183.912842,190.897537 185.272934,191.213623 
	C184.672180,192.081955 184.172913,192.803589 183.485764,193.796783 
	C184.709381,194.211853 185.837967,194.594696 187.903732,195.295456 
	C186.108658,196.374298 184.837738,197.138107 183.808701,197.756561 
	C186.815659,207.756927 194.255722,216.599503 186.138382,227.048798 
	C191.908722,224.333618 197.101593,222.287659 203.521835,224.812088 
	C199.012573,225.965958 195.199753,226.941620 191.386917,227.917282 
	C191.450424,228.136932 191.513916,228.356567 191.577408,228.576218 
	C195.960434,229.067444 200.343445,229.558655 204.726456,230.049881 
	C194.418701,236.411545 184.570435,233.637711 178.479279,223.489990 
z"/>
<path fill="#F7F7F7" opacity="1.000000" stroke="none" 
	d="
M425.388794,312.406616 
	C422.319702,315.916168 419.482361,319.157867 416.220093,322.885101 
	C413.703644,315.641815 411.375763,308.942261 409.050568,302.241760 
	C408.996307,302.085297 408.950073,301.919922 408.938019,301.755920 
	C408.721069,298.812927 420.380524,285.276337 423.318695,285.243164 
	C430.309265,285.164154 437.301392,285.220154 444.292877,285.221527 
	C445.407440,285.221741 446.522003,285.221558 448.936920,285.221558 
	C440.695251,294.735992 433.157898,303.437378 425.388794,312.406616 
z"/>
<path fill="#EFD311" opacity="1.000000" stroke="none" 
	d="
M375.857666,202.907745 
	C373.252472,202.912750 370.647308,202.917755 367.539062,202.451462 
	C367.062347,177.013397 367.088654,152.046631 367.114960,127.079865 
	C367.536865,127.042320 367.958740,127.004768 368.941193,126.976837 
	C369.668274,126.941299 369.834839,126.896141 370.001373,126.850975 
	C371.755646,126.912514 373.509918,126.974052 375.654358,127.299713 
	C376.044495,127.563843 376.301910,127.983490 376.301910,127.983490 
	C376.256470,128.746613 376.211060,129.509720 376.131775,131.105530 
	C376.017853,155.594727 375.937775,179.251236 375.857666,202.907745 
z"/>
<path fill="#EFD311" opacity="1.000000" stroke="none" 
	d="
M380.987701,195.145203 
	C380.557648,195.097580 380.127625,195.049973 379.353943,194.495438 
	C379.046906,174.359177 379.083557,154.729843 379.120178,135.100510 
	C379.838409,135.060455 380.556641,135.020401 381.963989,134.999207 
	C383.106415,134.968430 383.559692,134.918777 384.013000,134.869125 
	C385.049988,134.929810 386.086945,134.990479 387.533081,135.539276 
	C388.053070,138.035843 388.163879,140.044296 388.274719,142.052750 
	C388.250732,142.473282 388.226746,142.893829 388.120789,144.086884 
	C388.117676,155.921417 388.196564,166.983429 388.275452,178.045456 
	C388.252747,179.086243 388.230072,180.127045 388.117798,182.006714 
	C387.985657,186.839844 387.943115,190.834091 387.900574,194.828323 
	C387.900574,194.828323 387.461151,195.000809 386.814423,194.983353 
	C384.441040,195.025665 382.714355,195.085434 380.987701,195.145203 
z"/>
<path fill="#F2F2F2" opacity="1.000000" stroke="none" 
	d="
M115.240738,298.136719 
	C116.311150,293.699432 117.279701,289.667328 118.294937,285.440918 
	C126.630676,285.440918 134.876678,285.440918 143.625488,285.440918 
	C142.308273,291.391968 141.162781,297.046661 139.710785,302.621552 
	C139.487350,303.479401 137.865768,304.521210 136.870621,304.542664 
	C129.397903,304.703888 121.920135,304.630463 114.039703,304.630463 
	C114.452126,302.345978 114.795509,300.443939 115.240738,298.136719 
z"/>
<path fill="#F3D403" opacity="1.000000" stroke="none" 
	d="
M129.013809,202.715057 
	C128.586166,202.769043 128.158524,202.823029 127.396736,202.414886 
	C127.184509,200.799820 127.417992,199.646271 127.411812,198.494019 
	C127.295387,176.770569 127.131783,155.047348 127.025261,133.323868 
	C126.999352,128.038177 127.708664,127.568794 133.997147,128.733673 
	C133.997147,130.389374 133.997101,132.169891 133.997162,133.950424 
	C133.997910,154.598862 133.878708,175.248581 134.102341,195.894608 
	C134.146210,199.944885 133.033157,202.165497 129.013809,202.715057 
z"/>
<path fill="#EFD311" opacity="1.000000" stroke="none" 
	d="
M399.892639,186.873718 
	C397.222290,187.404953 394.551910,187.936203 391.229645,188.597137 
	C391.229645,172.976273 391.229645,158.110062 391.871582,143.057297 
	C392.714935,142.791977 392.916412,142.713226 393.117859,142.634491 
	C395.145325,142.675751 397.172791,142.717026 399.593567,143.361511 
	C399.955475,158.267731 399.924072,172.570724 399.892639,186.873718 
z"/>
<path fill="#ECD10F" opacity="1.000000" stroke="none" 
	d="
M101.455475,172.899765 
	C101.478310,171.887711 101.501144,170.875641 101.672211,169.073853 
	C101.703789,166.820953 101.587128,165.357819 101.470467,163.894669 
	C101.488007,163.196777 101.505547,162.498886 101.665833,161.006943 
	C101.698135,154.783035 101.587708,149.353165 101.477280,143.923309 
	C102.677338,143.501816 103.877388,143.080322 105.873489,142.783417 
	C108.042046,142.992615 109.414558,143.077225 110.787064,143.161835 
	C110.834000,157.416641 110.880936,171.671432 110.491035,186.386841 
	C109.345634,186.977890 108.637070,187.108337 107.928505,187.238785 
	C106.233223,187.204636 104.537941,187.170486 102.408630,186.590546 
	C101.801552,181.663086 101.628510,177.281433 101.455475,172.899765 
z"/>
<path fill="#F7F7F7" opacity="1.000000" stroke="none" 
	d="
M127.065002,334.109528 
	C126.067986,335.177704 125.151527,336.375214 124.197647,336.405823 
	C118.578140,336.585999 112.949913,336.494476 106.665657,336.494476 
	C107.923599,330.674957 108.992653,325.217773 110.384590,319.844238 
	C110.592155,319.042999 112.303291,318.155914 113.343285,318.124756 
	C118.966400,317.956329 124.597214,318.044922 130.733963,318.044922 
	C129.473907,323.515717 128.301086,328.607697 127.065002,334.109528 
z"/>
<path fill="#F2F2F2" opacity="1.000000" stroke="none" 
	d="
M353.034363,301.184418 
	C352.559235,302.993500 352.142792,304.388306 351.730377,305.769653 
	C347.661163,305.769653 343.864838,305.769653 339.331665,305.769653 
	C340.888336,298.795837 342.380035,292.113220 343.885101,285.370605 
	C348.106995,285.370605 351.898956,285.370605 356.529114,285.370605 
	C355.354614,290.634521 354.223846,295.702332 353.034363,301.184418 
z"/>
<path fill="#F2F2F2" opacity="1.000000" stroke="none" 
	d="
M268.769684,285.219299 
	C270.360931,285.282196 271.503479,285.345490 273.083435,285.433075 
	C271.563873,292.230957 270.096375,298.795929 268.572479,305.613098 
	C264.397156,305.613098 260.321259,305.613098 255.817307,305.613098 
	C257.337250,298.851318 258.815216,292.276306 260.401428,285.219696 
	C263.069916,285.219696 265.695435,285.219696 268.769684,285.219299 
z"/>
<path fill="#201801" opacity="1.000000" stroke="none" 
	d="
M366.717102,127.050896 
	C367.088654,152.046631 367.062347,177.013397 367.105652,202.436493 
	C366.343628,202.915207 365.511963,202.937622 364.320251,202.472565 
	C363.948273,177.005707 363.936401,152.026276 363.924500,127.046860 
	C364.722748,127.038544 365.520966,127.030235 366.717102,127.050896 
z"/>
<path fill="#201801" opacity="1.000000" stroke="none" 
	d="
M134.901718,127.054970 
	C135.690048,127.034981 136.478378,127.014999 137.588287,127.485458 
	C137.903198,132.614014 137.873642,137.252228 137.893860,141.890213 
	C137.981186,161.923660 138.083084,181.957047 138.131836,202.219269 
	C138.084000,202.448074 138.123413,202.913940 138.123413,202.913940 
	C137.295029,202.934906 136.466644,202.955872 135.280914,202.475525 
	C134.916275,177.001144 134.908997,152.028061 134.901718,127.054970 
z"/>
<path fill="#201801" opacity="1.000000" stroke="none" 
	d="
M378.785675,135.023865 
	C379.083557,154.729843 379.046906,174.359177 379.031494,194.451660 
	C378.206482,197.448639 377.360229,199.982452 376.185852,202.712006 
	C375.937775,179.251236 376.017853,155.594727 376.203461,131.482452 
	C377.023041,132.333557 377.737091,133.640396 378.785675,135.023865 
z"/>
<path fill="#EFEFEE" opacity="1.000000" stroke="none" 
	d="
M320.040833,183.882370 
	C319.698792,182.748184 319.752228,181.619156 320.322205,180.111084 
	C321.142853,173.446335 321.446930,167.160645 321.751007,160.874939 
	C321.632141,157.964417 321.385468,155.051727 321.434845,152.144058 
	C321.474365,149.816208 321.873535,147.494476 322.113068,145.170044 
	C322.900177,145.185806 323.687286,145.201584 324.474365,145.217346 
	C325.324524,154.335403 326.644714,163.444397 326.821198,172.575470 
	C326.906036,176.964828 326.317230,182.260910 320.040833,183.882370 
z"/>
<path fill="#E6CE2F" opacity="1.000000" stroke="none" 
	d="
M134.583588,127.019325 
	C134.908997,152.028061 134.916275,177.001144 134.868164,202.432434 
	C133.151047,202.893951 131.489319,202.897263 129.420715,202.807816 
	C133.033157,202.165497 134.146210,199.944885 134.102341,195.894608 
	C133.878708,175.248581 133.997910,154.598862 133.997162,133.950424 
	C133.997101,132.169891 133.997147,130.389374 133.997147,128.733673 
	C127.708664,127.568794 126.999352,128.038177 127.025261,133.323868 
	C127.131783,155.047348 127.295387,176.770569 127.411812,198.494019 
	C127.417992,199.646271 127.184509,200.799820 127.082779,202.326462 
	C127.102959,202.700165 126.653908,202.885941 126.361816,202.411484 
	C126.084808,177.002533 126.099884,152.068054 126.542641,127.079590 
	C128.981079,126.953804 130.991821,126.882004 133.002579,126.810196 
	C133.423538,126.868027 133.844513,126.925850 134.583588,127.019325 
z"/>
<path fill="#E6CE2F" opacity="1.000000" stroke="none" 
	d="
M122.941406,135.133575 
	C122.941406,154.891251 122.941406,174.648895 122.941406,194.922501 
	C119.960915,195.189377 117.124481,195.443344 114.123886,194.889801 
	C113.999443,174.426086 114.039162,154.769897 114.520233,135.070938 
	C117.621529,135.063293 120.281471,135.098434 122.941406,135.133575 
M115.008080,169.499969 
	C115.008217,175.822891 114.980011,182.145996 115.016991,188.468704 
	C115.049629,194.049042 115.948555,194.673752 121.979912,193.048157 
	C121.979912,175.068268 122.034836,156.962601 121.827484,138.859909 
	C121.816422,137.893890 119.722664,136.451797 118.374901,136.108185 
	C115.806595,135.453430 114.948265,137.064423 114.968079,139.548019 
	C115.045067,149.198166 115.004745,158.849258 115.008080,169.499969 
z"/>
<path fill="#EFEFEE" opacity="1.000000" stroke="none" 
	d="
M256.618164,113.076195 
	C250.666656,112.180748 245.481491,110.635452 242.055420,105.600792 
	C249.845306,105.905380 257.832977,105.317398 263.723480,113.114693 
	C261.490021,113.114693 259.256531,113.114693 256.618164,113.076195 
z"/>
<path fill="#060207" opacity="1.000000" stroke="none" 
	d="
M123.078606,134.810455 
	C120.281471,135.098434 117.621529,135.063293 114.255753,135.013000 
	C113.369385,135.006271 113.188858,135.014694 113.008331,135.023117 
	C113.627182,134.032806 114.296577,132.163086 114.856659,132.195297 
	C118.418716,132.400024 119.636208,130.698990 120.561279,127.461967 
	C121.300201,124.876366 123.151947,122.802528 126.792068,122.817711 
	C129.301147,122.828171 131.817139,121.176651 135.233704,119.941101 
	C134.279114,122.584892 133.647766,124.333488 133.009491,126.446136 
	C130.991821,126.882004 128.981079,126.953804 126.251343,127.171432 
	C125.305817,127.879242 125.079254,128.441238 124.852699,129.003220 
	C124.307076,130.831253 123.761436,132.659302 123.078606,134.810455 
z"/>
<path fill="#EFD311" opacity="1.000000" stroke="none" 
	d="
M411.822815,169.037018 
	C408.719391,169.037262 406.091583,169.037262 403.192383,169.037262 
	C403.192383,166.276810 403.192383,163.884399 403.192383,161.182068 
	C406.980347,161.182068 410.702545,161.182068 415.005707,161.182068 
	C413.646820,163.855789 417.855774,167.791046 411.822815,169.037018 
z"/>
<path fill="#E6CE2F" opacity="1.000000" stroke="none" 
	d="
M354.656372,196.027237 
	C354.710785,174.600998 354.737915,153.174591 354.875000,131.748871 
	C354.885162,130.159561 355.684967,128.575302 356.886047,127.006424 
	C358.102539,127.083771 358.550568,127.143387 359.001434,127.397247 
	C359.004242,127.591499 359.008453,127.980019 358.590515,127.999939 
	C357.442749,129.577866 356.086792,131.132111 356.077423,132.694458 
	C355.947296,154.336029 355.996979,175.978714 356.023773,197.621109 
	C356.025360,198.911758 356.205322,200.202164 356.322296,201.759216 
	C358.734650,201.447479 360.829712,201.176758 362.942688,201.205872 
	C362.966217,201.906082 362.971863,202.306442 362.977539,202.706818 
	C360.399933,202.685211 357.822296,202.663605 355.053131,201.890594 
	C354.793182,199.435211 354.724762,197.731232 354.656372,196.027237 
z"/>
<path fill="#E6CE2F" opacity="1.000000" stroke="none" 
	d="
M138.561523,202.909775 
	C138.123413,202.913940 138.084000,202.448074 138.337219,202.081955 
	C138.836288,201.485397 139.012207,201.210236 139.432831,201.077820 
	C144.733749,202.278320 145.989639,201.212173 145.994629,195.618225 
	C146.014450,173.416885 145.984024,151.215485 146.202026,129.010956 
	C146.431824,129.007812 146.891418,129.000732 146.891418,129.000732 
	C146.964966,140.350281 147.038498,151.699814 147.103394,163.774750 
	C147.145233,164.675247 147.195755,164.850357 147.246292,165.025467 
	C147.200516,174.047516 147.154739,183.069580 147.091614,192.946503 
	C147.134903,194.859711 147.195541,195.918030 147.256165,196.976349 
	C147.207809,198.045212 147.159439,199.114075 147.077881,200.897797 
	C146.988556,202.054245 146.932419,202.495834 146.876282,202.937408 
	C144.250732,202.926804 141.625198,202.916214 138.561523,202.909775 
z"/>
<path fill="#E9CF3E" opacity="1.000000" stroke="none" 
	d="
M139.118225,200.890381 
	C139.012207,201.210236 138.836288,201.485397 138.385056,201.853149 
	C138.083084,181.957047 137.981186,161.923660 137.893860,141.890213 
	C137.873642,137.252228 137.903198,132.614014 137.981354,127.516800 
	C140.725983,127.027374 143.399109,126.997047 146.573456,127.240463 
	C147.137283,127.671661 147.199905,127.829124 147.262527,127.986595 
	C147.201340,128.155853 147.140152,128.325104 146.985184,128.747543 
	C146.891418,129.000732 146.431824,129.007812 145.852570,128.843445 
	C139.890701,127.469482 139.040482,127.952820 139.037704,132.826523 
	C139.024780,155.514450 139.084503,178.202423 139.118225,200.890381 
z"/>
<path fill="#E9CF3E" opacity="1.000000" stroke="none" 
	d="
M359.008453,127.980019 
	C359.008453,127.980019 359.004242,127.591499 359.252014,127.311516 
	C359.664825,126.969040 359.829926,126.906555 359.994995,126.844063 
	C361.042694,126.892067 362.090393,126.940071 363.531311,127.017471 
	C363.936401,152.026276 363.948273,177.005707 363.904602,202.443802 
	C363.849030,202.902481 363.394501,202.889740 363.186035,202.798279 
	C362.971863,202.306442 362.966217,201.906082 362.957458,200.747437 
	C362.957336,177.626541 362.937714,155.263824 362.991302,132.901306 
	C362.998199,130.031281 363.130035,127.367599 359.008453,127.980019 
z"/>
<path fill="#574400" opacity="1.000000" stroke="none" 
	d="
M124.905533,129.469315 
	C125.079254,128.441238 125.305817,127.879242 125.823669,127.225410 
	C126.099884,152.068054 126.084808,177.002533 126.119629,202.392059 
	C125.773048,201.189362 125.037422,199.532867 125.031311,197.873688 
	C124.948021,175.227814 124.965622,152.581558 124.905533,129.469315 
z"/>
<path fill="#635501" opacity="1.000000" stroke="none" 
	d="
M112.995636,135.489716 
	C113.188858,135.014694 113.369385,135.006271 113.814392,135.055786 
	C114.039162,154.769897 113.999443,174.426086 113.899918,194.545746 
	C113.550880,193.277069 113.015915,191.545700 113.010307,189.812607 
	C112.952194,171.860657 112.979424,153.908447 112.995636,135.489716 
z"/>
<path fill="#E6CE2F" opacity="1.000000" stroke="none" 
	d="
M347.978485,160.659317 
	C349.132111,160.771942 350.285736,160.884567 351.737274,161.026276 
	C351.825836,162.117508 351.915649,163.224594 351.979919,165.048859 
	C351.923431,166.805313 351.892517,167.844574 351.861572,168.883820 
	C347.713898,168.852036 343.566223,168.820251 339.213379,168.387695 
	C339.008240,167.986908 339.145782,167.845627 339.592468,167.889862 
	C342.521454,167.951248 345.046661,168.237564 347.464966,167.852554 
	C348.427612,167.699295 349.640381,166.148148 349.833984,165.070679 
	C349.989716,164.204254 348.775238,162.224304 348.179657,162.228683 
	C343.810028,162.260834 339.443176,162.668457 334.898376,163.131561 
	C334.721283,163.305405 334.399078,163.682861 334.399078,163.682861 
	C333.875763,163.085175 333.352448,162.487488 331.870361,160.794724 
	C336.305939,160.794724 339.708649,160.794724 343.953796,160.826569 
	C345.856964,160.792053 346.917725,160.725677 347.978485,160.659317 
z"/>
<path fill="#635501" opacity="1.000000" stroke="none" 
	d="
M400.264587,186.678391 
	C399.924072,172.570724 399.955475,158.267731 400.007874,143.500732 
	C400.332886,143.583359 400.903931,144.130966 400.901886,144.676437 
	C400.849884,158.612122 400.737946,172.547577 400.264587,186.678391 
z"/>
<path fill="#E6CE2F" opacity="1.000000" stroke="none" 
	d="
M155.958893,160.640442 
	C157.427170,160.753647 158.895447,160.866852 160.748734,161.009750 
	C161.426956,163.421890 162.123901,165.900696 162.996536,169.004318 
	C158.759674,169.004318 154.872284,169.004318 150.450623,168.739151 
	C149.845459,168.322968 149.774597,168.171967 149.703720,168.020950 
	C149.749634,167.270370 149.795547,166.519775 149.852417,165.134689 
	C149.806747,164.324127 149.750107,164.148071 149.693451,163.972000 
	C149.494904,161.392822 150.797958,160.478714 153.941544,160.817093 
	C155.099579,160.771057 155.529236,160.705750 155.958893,160.640442 
M157.281006,168.007797 
	C158.348694,167.849304 159.416397,167.690796 160.662323,167.505844 
	C160.386246,166.078735 160.465820,164.219772 159.908112,164.003387 
	C157.592972,163.105133 155.101807,162.542755 152.630997,162.290436 
	C152.260056,162.252548 151.057632,165.445755 151.250717,165.569717 
	C152.842468,166.591629 154.672958,167.241730 157.281006,168.007797 
z"/>
<path fill="#E9CF3E" opacity="1.000000" stroke="none" 
	d="
M92.045647,160.886169 
	C94.495148,160.886230 96.463852,160.886230 98.729202,160.886230 
	C98.729202,163.609024 98.729202,166.012543 98.729202,168.730057 
	C95.029778,168.730057 91.300125,168.730057 87.274277,168.730057 
	C87.274277,166.321594 87.274277,163.920685 87.274277,161.156067 
	C88.688690,161.067078 90.126770,160.976593 92.045647,160.886169 
M96.792450,167.485840 
	C98.203377,165.235535 99.672745,162.700516 95.513321,162.111664 
	C93.210251,161.785614 90.722183,162.472214 88.391754,163.018875 
	C88.111435,163.084625 87.958672,165.982941 88.322235,166.128220 
	C90.461868,166.983154 92.768906,167.424591 95.028809,167.966675 
	C95.328392,168.038559 95.680656,167.890762 96.792450,167.485840 
z"/>
<path fill="#574400" opacity="1.000000" stroke="none" 
	d="
M388.514160,177.706665 
	C388.196564,166.983429 388.117676,155.921417 388.160095,144.400925 
	C388.517792,150.312347 388.850555,156.680603 388.958954,163.052658 
	C389.040100,167.821838 388.832153,172.595963 388.514160,177.706665 
z"/>
<path fill="#59585B" opacity="1.000000" stroke="none" 
	d="
M321.468140,160.931091 
	C321.446930,167.160645 321.142853,173.446335 320.439514,179.815659 
	C320.002533,174.290283 319.964752,168.681290 319.949646,162.615051 
	C320.376587,161.767624 320.780945,161.377441 321.468140,160.931091 
z"/>
<path fill="#F7F7F7" opacity="1.000000" stroke="none" 
	d="
M323.290955,227.188263 
	C322.007660,228.970016 320.636871,230.472565 319.266083,231.975098 
	C319.019928,231.842575 318.773773,231.710037 318.527618,231.577499 
	C318.866516,230.210190 319.205444,228.842880 319.325012,227.260956 
	C319.105713,225.749969 319.105713,224.453613 319.105713,223.157242 
	C319.420319,222.979111 319.734894,222.800980 320.049500,222.622849 
	C321.100830,224.051590 322.152161,225.480331 323.290955,227.188263 
z"/>
<path fill="#060207" opacity="1.000000" stroke="none" 
	d="
M124.751732,116.896240 
	C126.228035,116.640884 127.330688,116.452675 128.433350,116.264465 
	C128.577469,116.708649 128.721588,117.152832 128.865723,117.597015 
	C126.598335,118.783775 124.330956,119.970535 122.063576,121.157295 
	C121.662819,120.634155 121.262062,120.111015 120.861298,119.587868 
	C122.033562,118.713043 123.205826,117.838211 124.751732,116.896240 
z"/>
<path fill="#635501" opacity="1.000000" stroke="none" 
	d="
M101.277100,144.283859 
	C101.587708,149.353165 101.698135,154.783035 101.633987,160.659012 
	C101.331917,155.618225 101.204414,150.131317 101.277100,144.283859 
z"/>
<path fill="#635501" opacity="1.000000" stroke="none" 
	d="
M101.264435,173.264893 
	C101.628510,177.281433 101.801552,181.663086 101.992508,186.507690 
	C101.698090,182.523758 101.385750,178.076889 101.264435,173.264893 
z"/>
<path fill="#574400" opacity="1.000000" stroke="none" 
	d="
M388.237274,194.609253 
	C387.943115,190.834091 387.985657,186.839844 388.155151,182.395554 
	C388.379395,186.093719 388.476685,190.241959 388.237274,194.609253 
z"/>
<path fill="#201801" opacity="1.000000" stroke="none" 
	d="
M381.051636,195.449448 
	C382.714355,195.085434 384.441040,195.025665 386.590515,195.058090 
	C386.261536,197.109161 385.845856,197.151703 381.051636,195.449448 
z"/>
<path fill="#F7F7F7" opacity="1.000000" stroke="none" 
	d="
M312.856720,157.173859 
	C311.868835,157.953690 310.605194,158.691742 309.341583,159.429810 
	C309.057373,159.045609 308.773193,158.661423 308.489014,158.277222 
	C309.115997,157.549911 309.743011,156.822586 310.704407,156.054337 
	C311.552887,156.386307 312.066925,156.759201 312.856720,157.173859 
z"/>
<path fill="#F7F7F7" opacity="1.000000" stroke="none" 
	d="
M280.175476,217.324127 
	C281.237762,217.751251 282.276154,218.506622 283.314514,219.262009 
	C283.108948,219.621246 282.903381,219.980469 282.697815,220.339691 
	C281.905121,220.047180 281.112396,219.754654 280.149597,219.206451 
	C280.036804,218.517975 280.094147,218.085190 280.175476,217.324127 
z"/>
<path fill="#F7F7F7" opacity="1.000000" stroke="none" 
	d="
M317.797119,225.195221 
	C317.043396,225.532455 316.269806,225.500671 315.222656,225.177261 
	C315.175049,223.951584 315.401062,223.017548 315.855255,221.140381 
	C316.818848,222.988312 317.298035,223.907257 317.797119,225.195221 
z"/>
<path fill="#574400" opacity="1.000000" stroke="none" 
	d="
M388.502319,141.750336 
	C388.163879,140.044296 388.053070,138.035843 387.918182,135.600235 
	C388.172729,137.264694 388.451324,139.356308 388.502319,141.750336 
z"/>
<path fill="#F7F7F7" opacity="1.000000" stroke="none" 
	d="
M326.321747,224.125061 
	C328.004883,224.723526 329.494873,225.609650 326.550873,227.000732 
	C326.212219,226.139664 326.187225,225.274155 326.321747,224.125061 
z"/>
<path fill="#E6CE2F" opacity="1.000000" stroke="none" 
	d="
M337.379822,166.690231 
	C336.497406,165.857193 335.615021,165.024139 334.565857,163.936981 
	C334.399078,163.682861 334.721283,163.305405 335.226807,163.183212 
	C336.508667,164.025909 337.285004,164.990799 337.882507,166.131454 
	C337.595673,166.434906 337.487762,166.562576 337.379822,166.690231 
z"/>
<path fill="#F7F7F7" opacity="1.000000" stroke="none" 
	d="
M309.813599,223.824783 
	C309.482025,224.110336 309.197662,224.089035 308.486847,224.035370 
	C308.175446,223.125504 308.290497,222.247971 308.405548,221.370438 
	C308.646057,221.335602 308.886566,221.300766 309.127045,221.265930 
	C309.371643,222.016602 309.616272,222.767258 309.813599,223.824783 
z"/>
<path fill="#F7F7F7" opacity="1.000000" stroke="none" 
	d="
M308.868286,208.874939 
	C309.528107,209.878052 310.187927,210.881149 311.132843,212.270233 
	C311.417908,212.656219 311.196106,212.573166 311.212982,212.631287 
	C310.169037,211.893082 309.108246,211.096741 308.215088,209.637543 
	C308.382721,208.974670 308.868286,208.874939 308.868286,208.874939 
z"/>
<path fill="#F7F7F7" opacity="1.000000" stroke="none" 
	d="
M306.699738,227.381195 
	C306.682404,227.992050 306.307159,228.798462 305.931946,229.604858 
	C305.711151,228.929581 305.490356,228.254303 305.466400,227.351639 
	C305.889465,227.275070 306.115662,227.425903 306.699738,227.381195 
z"/>
<path fill="#201801" opacity="1.000000" stroke="none" 
	d="
M354.440979,196.304962 
	C354.724762,197.731232 354.793182,199.435211 354.781433,201.559982 
	C354.542755,200.181396 354.384186,198.382034 354.440979,196.304962 
z"/>
<path fill="#635501" opacity="1.000000" stroke="none" 
	d="
M110.678780,142.832428 
	C109.414558,143.077225 108.042046,142.992615 106.282387,142.760773 
	C107.453659,142.576721 109.012070,142.539871 110.678780,142.832428 
z"/>
<path fill="#635501" opacity="1.000000" stroke="none" 
	d="
M101.281502,164.178711 
	C101.587128,165.357819 101.703789,166.820953 101.643410,168.695038 
	C101.341759,167.558243 101.217148,166.010498 101.281502,164.178711 
z"/>
<path fill="#160F04" opacity="1.000000" stroke="none" 
	d="
M147.172028,202.931717 
	C146.932419,202.495834 146.988556,202.054245 147.145905,201.294403 
	C147.682846,201.353897 148.118591,201.731659 148.554337,202.109406 
	C148.192154,202.381607 147.829956,202.653824 147.172028,202.931717 
z"/>
<path fill="#201801" opacity="1.000000" stroke="none" 
	d="
M352.145508,168.726349 
	C351.892517,167.844574 351.923431,166.805313 352.043945,165.385315 
	C352.232117,166.192673 352.330780,167.380768 352.145508,168.726349 
z"/>
<path fill="#160F04" opacity="1.000000" stroke="none" 
	d="
M152.586609,128.045349 
	C152.202347,128.279373 151.820297,128.277359 151.440414,128.247665 
	C151.429718,128.246826 151.442108,127.950684 151.443741,127.792229 
	C151.825546,127.796638 152.207336,127.801048 152.586609,128.045349 
z"/>
<path fill="#201801" opacity="1.000000" stroke="none" 
	d="
M347.746185,160.453400 
	C346.917725,160.725677 345.856964,160.792053 344.408630,160.754120 
	C345.185364,160.515701 346.349609,160.381592 347.746185,160.453400 
z"/>
<path fill="#F7F7F7" opacity="1.000000" stroke="none" 
	d="
M313.789429,222.729370 
	C313.449127,223.015305 313.141663,223.020584 312.603546,223.015305 
	C312.572083,222.514923 312.771210,222.020325 312.970337,221.525726 
	C313.254333,221.834976 313.538361,222.144211 313.789429,222.729370 
z"/>
<path fill="#201801" opacity="1.000000" stroke="none" 
	d="
M383.961731,134.590698 
	C383.559692,134.918777 383.106415,134.968430 382.318146,134.935989 
	C382.309723,134.378418 382.636261,133.902924 382.962769,133.427429 
	C383.278656,133.722382 383.594543,134.017319 383.961731,134.590698 
z"/>
<path fill="#160F04" opacity="1.000000" stroke="none" 
	d="
M147.470886,196.746765 
	C147.195541,195.918030 147.134903,194.859711 147.162231,193.411652 
	C147.395309,194.187012 147.540451,195.352097 147.470886,196.746765 
z"/>
<path fill="#F7F7F7" opacity="1.000000" stroke="none" 
	d="
M344.129761,209.771423 
	C344.006256,209.352295 344.056610,208.719025 344.369446,208.038727 
	C344.522461,208.513565 344.413025,209.035431 344.129761,209.771423 
z"/>
<path fill="#635501" opacity="1.000000" stroke="none" 
	d="
M108.155945,187.437286 
	C108.637070,187.108337 109.345634,186.977890 110.416000,186.839294 
	C109.979668,187.099380 109.181534,187.367584 108.155945,187.437286 
z"/>
<path fill="#160F04" opacity="1.000000" stroke="none" 
	d="
M141.933380,122.312668 
	C142.470551,122.282516 142.851196,122.407295 143.231827,122.532074 
	C143.127365,122.635414 142.999878,122.841988 142.922348,122.824669 
	C142.533325,122.737823 142.157364,122.592430 141.933380,122.312668 
z"/>
<path fill="#201801" opacity="1.000000" stroke="none" 
	d="
M359.793213,126.632385 
	C359.829926,126.906555 359.664825,126.969040 359.249207,127.117264 
	C358.550568,127.143387 358.102539,127.083771 357.326538,126.936005 
	C357.862915,126.705475 358.727173,126.563095 359.793213,126.632385 
z"/>
<path fill="#F7F7F7" opacity="1.000000" stroke="none" 
	d="
M267.973633,238.285583 
	C268.379913,238.321014 268.687836,238.637070 269.122559,239.262863 
	C269.015930,239.885086 268.782532,240.197556 268.549133,240.510040 
	C268.324493,239.862091 268.099884,239.214157 267.973633,238.285583 
z"/>
<path fill="#160F04" opacity="1.000000" stroke="none" 
	d="
M149.387802,163.976700 
	C149.750107,164.148071 149.806747,164.324127 149.778427,164.764343 
	C149.081711,165.023605 148.469955,165.018692 147.552246,165.019623 
	C147.195755,164.850357 147.145233,164.675247 147.170410,164.237366 
	C147.858124,163.976852 148.470139,163.979126 149.387802,163.976700 
z"/>
<path fill="#160F04" opacity="1.000000" stroke="none" 
	d="
M155.805237,160.466156 
	C155.529236,160.705750 155.099579,160.771057 154.355194,160.738403 
	C154.577499,160.524246 155.114548,160.408051 155.805237,160.466156 
z"/>
<path fill="#E6CE2F" opacity="1.000000" stroke="none" 
	d="
M338.938965,168.057037 
	C338.453918,167.808197 338.038116,167.489212 337.501068,166.930237 
	C337.487762,166.562576 337.595673,166.434906 338.110046,166.300125 
	C338.726227,166.810562 338.936005,167.328094 339.145782,167.845627 
	C339.145782,167.845627 339.008240,167.986908 338.938965,168.057037 
z"/>
<path fill="#0F0F0F" opacity="1.000000" stroke="none" 
	d="
M241.371933,226.022644 
	C241.395096,225.795242 241.636200,225.579330 241.950745,225.676880 
	C242.024185,225.990356 241.589874,226.034134 241.371933,226.022644 
z"/>
<path fill="#635501" opacity="1.000000" stroke="none" 
	d="
M393.003937,142.466003 
	C392.916412,142.713226 392.714935,142.791977 392.208435,142.760803 
	C392.232300,142.533066 392.561157,142.415283 393.003937,142.466003 
z"/>
<path fill="#160F04" opacity="1.000000" stroke="none" 
	d="
M149.576309,168.152283 
	C149.774597,168.171967 149.845459,168.322968 149.992004,168.712158 
	C149.861420,168.728104 149.655167,168.505875 149.576309,168.152283 
z"/>
<path fill="#060207" opacity="1.000000" stroke="none" 
	d="
M114.452507,129.530731 
	C114.421616,129.477951 114.483398,129.583496 114.452507,129.530731 
z"/>
<path fill="#160F04" opacity="1.000000" stroke="none" 
	d="
M147.398407,127.861275 
	C147.199905,127.829124 147.137283,127.671661 147.017975,127.266479 
	C147.152298,127.257820 147.343292,127.496887 147.398407,127.861275 
z"/>
<path fill="#201801" opacity="1.000000" stroke="none" 
	d="
M369.906738,126.707779 
	C369.834839,126.896141 369.668274,126.941299 369.252930,126.915680 
	C369.273468,126.751465 369.542755,126.658028 369.906738,126.707779 
z"/>
<path fill="#201801" opacity="1.000000" stroke="none" 
	d="
M373.527405,124.545181 
	C373.478210,124.573502 373.576599,124.516869 373.527405,124.545181 
z"/>
<path fill="#201801" opacity="1.000000" stroke="none" 
	d="
M376.437500,127.852203 
	C376.301910,127.983490 376.044495,127.563843 375.977356,127.327621 
	C376.131165,127.301231 376.352112,127.511070 376.437500,127.852203 
z"/>
<path fill="#FBFBFB" opacity="1.000000" stroke="none" 
	d="
M315.900726,157.329193 
	C316.118378,157.295197 316.505707,157.678131 316.732178,158.277588 
	C316.404358,158.244797 316.237366,157.995468 315.900726,157.329193 
z"/>
<path fill="#0F0F0F" opacity="1.000000" stroke="none" 
	d="
M238.506561,222.402588 
	C229.470673,216.795700 222.574203,222.055176 215.673004,227.290710 
	C215.426590,226.957642 215.180176,226.624573 214.933746,226.291519 
	C217.031982,224.046143 219.368393,221.974075 221.163055,219.507797 
	C223.047256,216.918442 225.433884,214.085648 225.823059,211.125488 
	C227.310699,199.810043 226.483261,188.560181 222.798721,177.630157 
	C221.652512,174.229996 219.971344,171.610657 216.534821,169.803146 
	C212.851379,167.865768 209.678894,164.956924 205.784653,162.107056 
	C213.784561,158.776413 224.378082,164.246918 226.143188,171.576157 
	C229.406967,185.128372 232.574814,198.704132 235.929657,212.233643 
	C236.680984,215.263611 238.038589,218.143250 238.978104,221.608765 
	C238.839127,222.125458 238.506561,222.402588 238.506561,222.402588 
z"/>
<path fill="#0F0F0F" opacity="1.000000" stroke="none" 
	d="
M267.990112,185.197327 
	C267.779114,191.144043 267.541138,196.621429 267.303162,202.098801 
	C266.693878,202.114517 266.084595,202.130234 265.475281,202.145966 
	C265.009705,197.694992 264.544128,193.244034 264.008270,188.121307 
	C263.052124,189.698883 262.415161,190.749786 261.597778,192.098450 
	C259.558167,184.156174 257.629089,176.644287 255.520615,168.433807 
	C262.344391,172.463455 269.033447,175.621872 267.990112,185.197327 
z"/>
<path fill="#121212" opacity="1.000000" stroke="none" 
	d="
M308.972473,208.639313 
	C308.868286,208.874939 308.382721,208.974670 308.224365,209.165314 
	C306.583405,210.476364 303.207611,210.558044 305.653137,213.797089 
	C298.490723,217.634949 292.643433,218.066208 283.984070,215.220978 
	C285.982178,214.892654 287.550385,214.634964 289.721436,214.373383 
	C291.165253,214.174225 292.006195,213.978958 293.641357,213.599289 
	C292.070343,213.017136 291.316010,212.737610 290.561646,212.458069 
	C289.473206,211.677399 288.384735,210.896729 287.122162,209.991165 
	C294.538483,208.672867 301.411835,207.451080 308.928192,206.071579 
	C310.046844,205.645691 310.522461,205.377533 310.998047,205.109344 
	C310.357574,206.207458 309.717102,207.305573 308.972473,208.639313 
z"/>
<path fill="#121212" opacity="1.000000" stroke="none" 
	d="
M291.403442,110.525085 
	C288.472565,111.906960 285.859253,113.116241 281.943115,114.928360 
	C285.392426,114.928360 287.333801,114.928360 289.672913,114.928360 
	C283.618042,118.899460 277.908661,122.643974 272.400909,126.256248 
	C271.721741,116.136177 281.052246,108.515106 295.041595,109.030014 
	C293.934723,109.470840 292.827820,109.911659 291.403442,110.525085 
z"/>
<path fill="#121212" opacity="1.000000" stroke="none" 
	d="
M238.784988,125.510773 
	C233.201050,127.608894 228.040115,129.706924 223.106598,131.712494 
	C223.600845,130.767578 224.537521,128.976807 225.650894,126.848228 
	C224.447540,126.848228 223.438019,126.848228 222.416580,126.848228 
	C227.511093,117.252640 237.288940,116.431305 243.007751,125.510681 
	C241.585159,125.510681 240.396576,125.510681 238.784988,125.510773 
z"/>
<path fill="#121212" opacity="1.000000" stroke="none" 
	d="
M179.611664,162.381393 
	C182.752792,164.534744 185.613678,166.456329 188.402817,168.329727 
	C187.709152,169.039978 186.884125,169.884735 185.194702,171.614594 
	C180.689941,170.127869 177.533432,165.691086 174.697403,159.211823 
	C176.844589,160.573059 178.088013,161.361343 179.611664,162.381393 
z"/>
<path fill="#121212" opacity="1.000000" stroke="none" 
	d="
M221.003937,228.999802 
	C224.824936,223.695023 230.175476,224.703522 236.934387,225.379379 
	C230.865280,227.030212 226.179260,228.304840 221.215302,229.268967 
	C220.937363,228.958466 221.003937,228.999802 221.003937,228.999802 
z"/>
<path fill="#121212" opacity="1.000000" stroke="none" 
	d="
M275.835144,128.775116 
	C278.508057,126.919937 280.907318,125.293106 283.306549,123.666283 
	C283.699554,124.216835 284.092529,124.767395 284.485535,125.317947 
	C281.118744,127.812668 277.751984,130.307388 274.385223,132.802094 
	C274.040253,132.429886 273.695251,132.057678 273.350281,131.685471 
	C274.087341,130.791473 274.824432,129.897476 275.835144,128.775116 
z"/>
<path fill="#F7F7F7" opacity="1.000000" stroke="none" 
	d="
M291.609619,221.996185 
	C289.734955,221.849472 288.230530,221.690384 286.726135,221.531311 
	C286.744690,220.997162 286.763275,220.462997 286.781860,219.928848 
	C288.749695,219.928848 290.717529,219.928848 292.685364,219.928848 
	C292.450195,220.613846 292.215057,221.298828 291.609619,221.996185 
z"/>
<path fill="#F7F7F7" opacity="1.000000" stroke="none" 
	d="
M311.019104,204.792664 
	C310.522461,205.377533 310.046844,205.645691 309.283752,205.881744 
	C308.421051,204.842499 307.845825,203.835327 307.270599,202.828156 
	C308.221283,202.532288 309.234253,201.909866 310.097107,202.074432 
	C310.547729,202.160385 310.734314,203.630844 311.019104,204.792664 
z"/>
<path fill="#F7F7F7" opacity="1.000000" stroke="none" 
	d="
M301.390747,203.529266 
	C302.319489,203.170425 303.332855,203.121918 304.346191,203.073410 
	C304.256714,203.649902 304.167267,204.226410 304.077789,204.802902 
	C303.210297,204.481796 302.342804,204.160690 301.390747,203.529266 
z"/>
<path fill="#F7F7F7" opacity="1.000000" stroke="none" 
	d="
M298.934509,205.820770 
	C298.417328,205.369812 298.130463,204.848434 297.978638,204.290314 
	C297.959808,204.221161 298.658569,203.956772 299.024841,203.782837 
	C299.085266,204.434937 299.145691,205.087036 298.934509,205.820770 
z"/>
<path fill="#F7F7F7" opacity="1.000000" stroke="none" 
	d="
M330.372253,241.884674 
	C330.913635,242.131348 331.276550,242.567169 331.591461,243.035248 
	C331.605377,243.055969 331.181641,243.371124 330.961761,243.549133 
	C330.702728,243.059387 330.443695,242.569626 330.372253,241.884674 
z"/>
<path fill="#F7F7F7" opacity="1.000000" stroke="none" 
	d="
M292.001221,204.998779 
	C292.514557,205.298294 293.027863,205.597809 293.541199,205.897339 
	C293.358826,206.109573 293.176453,206.321823 292.994049,206.534058 
	C292.686188,206.212814 292.378326,205.891556 292.035248,205.285156 
	C292.000000,205.000000 292.001221,204.998779 292.001221,204.998779 
z"/>
<path fill="#F7F7F7" opacity="1.000000" stroke="none" 
	d="
M300.754517,219.384949 
	C300.950989,219.964005 300.906342,220.607285 300.861694,221.250565 
	C300.601257,221.206650 300.340820,221.162735 300.080353,221.118820 
	C300.224701,220.562271 300.369049,220.005722 300.754517,219.384949 
z"/>
<path fill="#F7F7F7" opacity="1.000000" stroke="none" 
	d="
M297.345703,221.332184 
	C297.275757,220.677277 297.356201,220.222275 297.436646,219.767273 
	C297.667145,219.981613 298.116669,220.238678 298.084808,220.401840 
	C298.006836,220.801666 297.706757,221.158173 297.345703,221.332184 
z"/>
<path fill="#0F0F0F" opacity="1.000000" stroke="none" 
	d="
M239.002991,221.984009 
	C239.476761,222.411682 239.786682,222.980774 240.096603,223.549881 
	C239.668030,223.366119 239.239456,223.182358 238.658722,222.700592 
	C238.506561,222.402588 238.839127,222.125458 239.002991,221.984009 
z"/>
<path fill="#010000" opacity="1.000000" stroke="none" 
	d="
M266.063416,213.072220 
	C265.648529,213.461380 265.006897,213.624527 264.365234,213.787674 
	C264.538666,213.449203 264.712067,213.110748 265.128693,212.588959 
	C265.526825,212.552490 265.681732,212.699341 266.063416,213.072220 
z"/>
<path fill="#121212" opacity="1.000000" stroke="none" 
	d="
M220.902100,228.941391 
	C220.903534,229.166519 220.940231,229.408707 220.976944,229.650909 
	C220.848083,229.499985 220.719223,229.349045 220.797150,229.098969 
	C221.003937,228.999802 220.937363,228.958466 220.902100,228.941391 
z"/>
<path fill="#F7F7F7" opacity="1.000000" stroke="none" 
	d="
M317.547028,233.469574 
	C317.577667,233.522095 317.516388,233.417053 317.547028,233.469574 
z"/>
<path fill="#F7F7F7" opacity="1.000000" stroke="none" 
	d="
M284.555603,221.461899 
	C284.594635,221.524323 284.516571,221.399475 284.555603,221.461899 
z"/>
<path fill="#F7F7F7" opacity="1.000000" stroke="none" 
	d="
M281.452148,215.530685 
	C281.420776,215.477341 281.483490,215.584030 281.452148,215.530685 
z"/>
<path fill="#F7F7F7" opacity="1.000000" stroke="none" 
	d="
M291.999390,205.000549 
	C291.880493,204.861954 291.762177,204.722809 291.643890,204.583649 
	C291.727264,204.632034 291.810669,204.680435 291.947632,204.863800 
	C292.001221,204.998779 292.000000,205.000000 291.999390,205.000549 
z"/>
<path fill="#F3D403" opacity="1.000000" stroke="none" 
	d="
M115.008087,168.999985 
	C115.004745,158.849258 115.045067,149.198166 114.968079,139.548019 
	C114.948265,137.064423 115.806595,135.453430 118.374901,136.108185 
	C119.722664,136.451797 121.816422,137.893890 121.827484,138.859909 
	C122.034836,156.962601 121.979912,175.068268 121.979912,193.048157 
	C115.948555,194.673752 115.049629,194.049042 115.016991,188.468704 
	C114.980011,182.145996 115.008217,175.822891 115.008087,168.999985 
z"/>
<path fill="#F2D305" opacity="1.000000" stroke="none" 
	d="
M358.590515,127.999939 
	C363.130035,127.367599 362.998199,130.031281 362.991302,132.901306 
	C362.937714,155.263824 362.957336,177.626541 362.939575,200.447601 
	C360.829712,201.176758 358.734650,201.447479 356.322296,201.759216 
	C356.205322,200.202164 356.025360,198.911758 356.023773,197.621109 
	C355.996979,175.978714 355.947296,154.336029 356.077423,132.694458 
	C356.086792,131.132111 357.442749,129.577866 358.590515,127.999939 
z"/>
<path fill="#F3D403" opacity="1.000000" stroke="none" 
	d="
M139.432831,201.077820 
	C139.084503,178.202423 139.024780,155.514450 139.037704,132.826523 
	C139.040482,127.952820 139.890701,127.469482 145.622772,128.846588 
	C145.984024,151.215485 146.014450,173.416885 145.994629,195.618225 
	C145.989639,201.212173 144.733749,202.278320 139.432831,201.077820 
z"/>
<path fill="#F2D305" opacity="1.000000" stroke="none" 
	d="
M339.592468,167.889862 
	C338.936005,167.328094 338.726227,166.810562 338.288940,166.124359 
	C337.285004,164.990799 336.508667,164.025909 335.403870,163.009369 
	C339.443176,162.668457 343.810028,162.260834 348.179657,162.228683 
	C348.775238,162.224304 349.989716,164.204254 349.833984,165.070679 
	C349.640381,166.148148 348.427612,167.699295 347.464966,167.852554 
	C345.046661,168.237564 342.521454,167.951248 339.592468,167.889862 
z"/>
<path fill="#F2D305" opacity="1.000000" stroke="none" 
	d="
M156.856049,168.006165 
	C154.672958,167.241730 152.842468,166.591629 151.250717,165.569717 
	C151.057632,165.445755 152.260056,162.252548 152.630997,162.290436 
	C155.101807,162.542755 157.592972,163.105133 159.908112,164.003387 
	C160.465820,164.219772 160.386246,166.078735 160.662323,167.505844 
	C159.416397,167.690796 158.348694,167.849304 156.856049,168.006165 
z"/>
<path fill="#F3D403" opacity="1.000000" stroke="none" 
	d="
M96.400490,167.665268 
	C95.680656,167.890762 95.328392,168.038559 95.028809,167.966675 
	C92.768906,167.424591 90.461868,166.983154 88.322235,166.128220 
	C87.958672,165.982941 88.111435,163.084625 88.391754,163.018875 
	C90.722183,162.472214 93.210251,161.785614 95.513321,162.111664 
	C99.672745,162.700516 98.203377,165.235535 96.400490,167.665268 
z"/>
<path fill="#F7F7F7" opacity="1.000000" stroke="none" 
	d="
M290.303223,212.860550 
	C291.316010,212.737610 292.070343,213.017136 293.641357,213.599289 
	C292.006195,213.978958 291.165253,214.174225 290.003357,214.258881 
	C289.803192,213.853226 289.923981,213.558136 290.303223,212.860550 
z"/>
</svg>